# Blender v2.80 (sub 54) OBJ File: 'sentrygun.blend'
# www.blender.org
mtllib sentrygun.mtl
o Cube
v -0.140000 0.000000 -0.340000
v -0.070000 -0.130000 -0.080000
v -0.070000 -0.130000 -0.340000
v 0.070000 -0.130000 -0.340000
v 0.140000 0.000000 -0.340000
v 0.070000 0.130000 -0.080000
v 0.070000 0.130000 -0.340000
v -0.070000 0.130000 -0.340000
v -0.090000 -0.160000 -0.370000
v -0.170000 0.000000 -0.370000
v 0.090000 -0.160000 -0.370000
v 0.170000 0.000000 -0.370000
v 0.090000 0.160000 -0.370000
v -0.090000 0.160000 -0.370000
v -0.090000 -0.160000 -0.550000
v -0.170000 0.000000 -0.550000
v 0.090000 -0.160000 -0.550000
v 0.170000 0.000000 -0.550000
v 0.090000 0.160000 -0.550000
v -0.090000 0.160000 -0.550000
v -0.070000 -0.130000 0.280000
v 0.070000 -0.130000 0.280000
v -0.140000 0.000000 0.500000
v -0.070000 -0.130000 0.500000
v 0.070000 -0.130000 0.500000
v 0.140000 0.000000 0.500000
v 0.070000 0.130000 0.500000
v -0.070000 0.130000 0.500000
v 0.070000 -0.130000 -0.080000
v 0.140000 0.000000 -0.080000
v -0.140000 0.000000 -0.080000
v 0.140000 0.000000 0.280000
v 0.070000 0.130000 0.280000
v -0.140000 0.000000 0.280000
v -0.070000 0.130000 0.280000
v -0.070000 0.130000 -0.080000
v 0.290000 0.090000 -0.080000
v 0.220000 0.220000 -0.080000
v 0.290000 0.090000 0.280000
v 0.220000 0.220000 0.280000
v -0.070000 -0.280000 -0.080000
v 0.070000 -0.280000 -0.080000
v -0.070000 -0.280000 0.280000
v 0.070000 -0.280000 0.280000
v 0.370000 0.000000 -0.130000
v 0.200000 0.330000 -0.130000
v 0.370000 0.000000 0.330000
v 0.200000 0.330000 0.330000
v 0.420000 0.030000 -0.130000
v 0.250000 0.350000 -0.130000
v 0.420000 0.030000 0.330000
v 0.250000 0.350000 0.330000
v -0.180000 -0.300000 -0.130000
v 0.180000 -0.300000 -0.130000
v -0.180000 -0.300000 0.330000
v 0.180000 -0.300000 0.330000
v -0.180000 -0.360000 -0.130000
v 0.180000 -0.360000 -0.130000
v -0.180000 -0.360000 0.330000
v 0.180000 -0.360000 0.330000
v -0.220000 0.220000 -0.080000
v -0.290000 0.090000 -0.080000
v -0.220000 0.220000 0.280000
v -0.290000 0.090000 0.280000
v -0.200000 0.330000 -0.130000
v -0.370000 0.000000 -0.130000
v -0.200000 0.330000 0.330000
v -0.370000 0.000000 0.330000
v -0.250000 0.350000 -0.130000
v -0.420000 0.030000 -0.130000
v -0.250000 0.350000 0.330000
v -0.420000 0.030000 0.330000
vt 1.000000 0.500000
vt 1.000000 1.000000
vt 0.833333 1.000000
vt 0.833333 0.500000
vt 0.666667 1.000000
vt 0.666667 0.500000
vt 0.500000 1.000000
vt 0.500000 0.500000
vt 0.333333 1.000000
vt 0.333333 0.500000
vt 0.833333 1.000000
vt 0.666667 1.000000
vt 0.166667 1.000000
vt 0.166667 0.500000
vt -0.000000 1.000000
vt -0.000000 0.500000
vt -0.000000 1.000000
vt 0.166667 1.000000
vt 0.166667 1.000000
vt -0.000000 1.000000
vt 0.333333 1.000000
vt 1.000000 1.000000
vt 0.500000 1.000000
vt 0.457846 0.370000
vt 0.250000 0.490000
vt 0.042154 0.370000
vt 0.042154 0.130000
vt 0.250000 0.010000
vt 0.457846 0.130000
vt 0.500000 1.000000
vt 0.333333 1.000000
vt 0.833333 1.000000
vt 0.666667 1.000000
vt 1.000000 1.000000
vt 0.166667 0.500000
vt -0.000000 0.500000
vt -0.000000 0.500000
vt 0.166667 0.500000
vt 0.333333 0.500000
vt 0.833333 0.500000
vt 1.000000 0.500000
vt 0.500000 0.500000
vt 0.666667 0.500000
vt 0.750000 0.490000
vt 0.957846 0.370000
vt 0.957846 0.130000
vt 0.750000 0.010000
vt 0.542154 0.130000
vt 0.542154 0.370000
vt 0.333333 0.500000
vt 0.500000 0.500000
vt 0.666667 0.500000
vt 0.833333 0.500000
vt 1.000000 0.500000
vt 0.333333 0.500000
vt 0.333333 0.500000
vt 0.333333 0.500000
vt 0.333333 0.500000
vt 0.333333 0.500000
vt 0.500000 0.500000
vt 0.833333 0.500000
vt 0.666667 0.500000
vt 0.333333 0.500000
vt 0.500000 0.500000
vt 0.500000 0.500000
vt 0.500000 0.500000
vt 0.500000 0.500000
vt 0.333333 0.500000
vt 0.333333 0.500000
vt 0.333333 0.500000
vt 0.333333 0.500000
vt 0.500000 0.500000
vt 0.833333 0.500000
vt 0.833333 0.500000
vt 0.833333 0.500000
vt 0.666667 0.500000
vt 0.333333 0.500000
vt 0.333333 0.500000
vt 0.500000 0.500000
vt 0.500000 0.500000
vt 0.500000 0.500000
vt 0.500000 0.500000
vt 0.833333 0.500000
vt 0.833333 0.500000
vt 0.666667 0.500000
vt 0.666667 0.500000
vt 0.666667 0.500000
vt 0.666667 0.500000
vt 0.333333 0.500000
vt 0.333333 0.500000
vt 0.500000 0.500000
vt 0.500000 0.500000
vt 0.500000 0.500000
vt 0.500000 0.500000
vn -0.8805 -0.4741 -0.0000
vn 0.0000 -1.0000 0.0000
vn 0.8805 -0.4741 0.0000
vn 0.8805 0.4741 0.0000
vn 0.0000 -0.7071 0.7071
vn 0.0000 1.0000 -0.0000
vn -0.8805 0.4741 -0.0000
vn -0.8944 0.4472 0.0000
vn 0.0000 0.7071 0.7071
vn -0.6376 -0.3298 0.6962
vn 0.6376 -0.3298 0.6962
vn -0.6376 0.3298 0.6962
vn 0.6376 0.3298 0.6962
vn 0.0000 0.0000 -1.0000
vn 0.8944 0.4472 0.0000
vn 0.8944 -0.4472 0.0000
vn -0.8944 -0.4472 0.0000
vn 0.0000 0.0000 1.0000
vn 0.7474 -0.6644 0.0000
vn 0.5145 0.8575 0.0000
vn -0.5145 -0.8575 0.0000
vn -0.9839 -0.1789 0.0000
vn -0.5145 0.8575 0.0000
vn 0.5145 -0.8575 0.0000
vn -0.1789 0.9839 0.0000
vn 1.0000 0.0000 0.0000
vn -1.0000 0.0000 0.0000
vn -0.3714 0.9285 0.0000
vn -0.7520 -0.3923 -0.5297
vn -0.7474 -0.6644 0.0000
vn -0.7520 -0.3923 0.5297
vn 0.8831 0.4692 0.0000
vn 0.0000 0.9285 0.3714
vn 0.1789 0.9839 0.0000
vn 0.0000 0.9285 -0.3714
vn 0.7520 -0.3923 -0.5297
vn 0.9839 -0.1789 0.0000
vn 0.7520 -0.3923 0.5297
vn -0.8831 0.4692 0.0000
vn 0.3714 0.9285 0.0000
usemtl Material
s off
f 31/1/1 1/2/1 3/3/1 2/4/1
f 2/4/2 3/3/2 4/5/2 29/6/2
f 29/6/3 4/5/3 5/7/3 30/8/3
f 30/8/4 5/7/4 7/9/4 6/10/4
f 4/5/5 3/3/5 9/11/5 11/12/5
f 6/10/6 7/9/6 8/13/6 36/14/6
f 36/14/7 8/13/7 1/15/7 31/16/7
f 10/17/8 14/18/8 20/19/8 16/20/8
f 8/13/9 7/9/9 13/21/9 14/18/9
f 3/3/10 1/2/10 10/22/10 9/11/10
f 5/7/11 4/5/11 11/12/11 12/23/11
f 1/15/12 8/13/12 14/18/12 10/17/12
f 7/9/13 5/7/13 12/23/13 13/21/13
f 15/24/14 16/25/14 20/26/14 19/27/14 18/28/14 17/29/14
f 13/21/15 12/23/15 18/30/15 19/31/15
f 11/12/2 9/11/2 15/32/2 17/33/2
f 14/18/6 13/21/6 19/31/6 20/19/6
f 12/23/16 11/12/16 17/33/16 18/30/16
f 9/11/17 10/22/17 16/34/17 15/32/17
f 35/35/7 34/36/7 23/37/7 28/38/7
f 6/10/6 36/14/6 35/35/6 33/39/6
f 31/1/1 2/4/1 21/40/1 34/41/1
f 29/6/3 30/8/3 32/42/3 22/43/3
f 23/44/18 24/45/18 25/46/18 26/47/18 27/48/18 28/49/18
f 32/42/4 33/39/4 27/50/4 26/51/4
f 21/40/2 22/43/2 25/52/2 24/53/2
f 33/39/6 35/35/6 28/38/6 27/50/6
f 22/43/3 32/42/3 26/51/3 25/52/3
f 34/41/1 21/40/1 24/53/1 23/54/1
f 62/55/19 64/56/19 68/57/19 66/58/19
f 30/8/14 6/10/14 38/59/14 37/60/14
f 22/43/18 21/40/18 43/61/18 44/62/18
f 34/63/18 35/64/18 63/65/18 64/56/18
f 35/64/20 36/66/20 61/67/20 63/65/20
f 31/68/21 34/63/21 64/56/21 62/55/21
f 36/66/14 31/68/14 62/55/14 61/67/14
f 38/59/22 40/69/22 48/70/22 46/71/22
f 6/10/23 33/39/23 40/69/23 38/59/23
f 33/39/18 32/42/18 39/72/18 40/69/18
f 32/42/24 30/8/24 37/60/24 39/72/24
f 43/61/25 41/73/25 53/74/25 55/75/25
f 29/6/26 22/43/26 44/62/26 42/76/26
f 2/4/14 29/6/14 42/76/14 41/73/14
f 21/40/27 2/4/27 41/73/27 43/61/27
f 46/71/28 48/70/28 52/77/28 50/78/28
f 37/60/29 38/59/29 46/71/29 45/79/29
f 39/72/30 37/60/30 45/79/30 47/80/30
f 40/69/31 39/72/31 47/80/31 48/70/31
f 49/81/32 50/78/32 52/77/32 51/82/32
f 45/79/14 46/71/14 50/78/14 49/81/14
f 47/80/24 45/79/24 49/81/24 51/82/24
f 48/70/18 47/80/18 51/82/18 52/77/18
f 55/75/27 53/74/27 57/83/27 59/84/27
f 44/62/33 43/61/33 55/75/33 56/85/33
f 42/76/34 44/62/34 56/85/34 54/86/34
f 41/73/35 42/76/35 54/86/35 53/74/35
f 57/83/2 58/87/2 60/88/2 59/84/2
f 56/85/18 55/75/18 59/84/18 60/88/18
f 54/86/26 56/85/26 60/88/26 58/87/26
f 53/74/14 54/86/14 58/87/14 57/83/14
f 66/58/21 68/57/21 72/89/21 70/90/21
f 61/67/36 62/55/36 66/58/36 65/91/36
f 63/65/37 61/67/37 65/91/37 67/92/37
f 64/56/38 63/65/38 67/92/38 68/57/38
f 69/93/39 70/90/39 72/89/39 71/94/39
f 65/91/14 66/58/14 70/90/14 69/93/14
f 67/92/40 65/91/40 69/93/40 71/94/40
f 68/57/18 67/92/18 71/94/18 72/89/18
